<svg id="Layer_1" data-name="Layer 1" xmlns="http://www.w3.org/2000/svg" viewBox="0 0 24 24"><path d="M6.6,9.6H5.8v4.9h.8a.79.79,0,0,0,.8-.8V10.4A.79.79,0,0,0,6.6,9.6Z"/><path d="M20.4,0H3.6A3.59,3.59,0,0,0,0,3.6V20.4A3.59,3.59,0,0,0,3.6,24H20.4A3.59,3.59,0,0,0,24,20.4V3.6A3.59,3.59,0,0,0,20.4,0ZM6.5,15.9H4.3V8.1H6.5a2.08,2.08,0,0,1,2.2,2.2v3.3A2.15,2.15,0,0,1,6.5,15.9Zm6-4.6v1.4H11v1.8h2.5v1.4H10.6a1,1,0,0,1-1-.9V9.1a1,1,0,0,1,.9-1h3V9.5H11v1.8Zm5.8,3.6c-.6,1.4-1.7,1.2-2.2,0L14.3,8.1h1.5l1.4,5.3,1.4-5.3h1.5Z"/></svg>